<svg width="786" height="763" viewBox="0 0 786 763" fill="none" xmlns="http://www.w3.org/2000/svg">
<path d="M369.051 20.8882C368.191 21.1339 360.209 21.4411 351.243 21.4411C342.278 21.5025 330.856 21.8097 325.76 22.1169C320.724 22.4855 313.233 22.9155 309.18 23.0998C299.969 23.5298 268.222 26.1715 257.599 27.4001C253.239 27.8916 247.283 28.5059 244.396 28.8131C241.51 29.1202 237.396 29.6731 235.186 30.0417C231.01 30.7175 224.624 31.7004 218.299 32.5605C212.097 33.482 195.64 36.3079 188.21 37.7209C175.806 40.1168 154.314 44.97 151.612 46.0144C150.445 46.4444 149.094 45.9529 144.611 43.557C135.646 38.8267 126.189 35.6322 113.908 33.4206C105.066 31.7619 80.9331 31.7619 74.3012 33.3591C58.4584 37.2294 47.8351 43.0041 38.3171 53.0177C27.264 64.5672 22.8428 75.6252 22.2901 93.0722C21.7988 108.676 25.0534 123.174 33.5274 142.342C46.3613 171.522 68.3448 202.055 103.531 239.59C118.575 255.624 126.497 263.365 150.936 285.849C152.717 287.447 154.129 289.167 154.129 289.658C154.129 290.15 153.331 291.993 152.349 293.774C147.313 303.174 147.252 315.399 152.164 324.675C154.559 329.098 161.682 335.979 166.104 338.129C177.832 343.842 191.034 342.307 201.289 334.197C204.912 331.31 209.456 324.737 211.053 320.191C211.667 318.47 212.342 316.996 212.649 316.996C212.956 316.996 213.878 318.716 214.799 320.866C217.623 327.501 229.352 350.846 233.528 357.911C263.125 408.9 302.18 446.251 351.059 470.088C357.261 473.159 362.296 475.862 362.296 476.108C362.296 476.415 361.682 476.845 360.946 477.03C360.147 477.275 358.612 478.32 357.568 479.364C353.822 482.866 355.358 486.49 361.867 489.562C363.954 490.545 367.148 491.651 368.928 492.081C372.429 492.879 372.92 493.862 370.648 495.398C368.56 496.75 362.849 503.937 360.577 508.115C357.63 513.459 355.112 521.814 354.375 528.695C352.41 546.94 359.84 565.616 372.736 575.2C378.201 579.193 378.324 579.316 377.955 579.93C377.771 580.237 376.297 580.667 374.701 580.852C363.954 582.326 355.542 586.811 355.542 590.988C355.542 594.244 360.761 597.807 368.191 599.65C369.727 600.08 371.139 600.756 371.323 601.247C371.569 601.8 370.279 603.582 368.069 605.793C360.7 613.288 348.787 619.8 337.12 622.626C322.321 626.189 305.557 631.595 295.057 636.203C294.074 636.633 290.758 637.984 287.688 639.275C281.67 641.732 262.143 651.193 256.678 654.264C232.299 668.087 219.22 679.452 215.965 689.834C214.492 694.564 214.43 712.687 215.965 714.162C219.834 718.093 250.783 727.247 273.257 731.117C282.1 732.653 288.241 733.636 294.136 734.435C297.697 734.926 303.654 735.725 307.338 736.278C356.893 743.158 401.904 744.571 447.344 740.516C466.012 738.919 473.872 737.936 496.469 734.435C499.539 733.943 503.961 733.267 506.294 732.899C508.689 732.592 512.005 731.977 513.663 731.67C515.382 731.363 519.619 730.503 523.181 729.827C543.506 725.957 569.113 718.155 573.043 714.592C574.025 713.793 574.148 712.38 574.148 702.489C574.148 695.609 573.902 690.51 573.411 689.22C569.972 679.145 555.788 667.104 531.164 653.466C519.804 647.138 508.935 642.162 488.486 633.868C483.635 631.841 462.573 625.083 457.476 623.855C441.081 619.985 431.747 615.377 422.782 606.899C417.685 601.985 417.071 600.51 420.203 599.896C426.159 598.667 432.607 594.981 433.282 592.278C433.528 591.48 433.282 590.005 432.729 588.899C431.256 585.766 423.089 582.203 414.369 580.852C411.913 580.483 411.176 579.009 413.141 578.271C416.273 577.104 423.826 570.285 426.957 565.8C433.405 556.647 436.291 547.002 436.291 534.777C436.291 526.115 435.309 520.77 432.484 513.582C430.335 508.176 424.992 500.19 421.185 496.75C417.624 493.555 417.562 492.388 421.062 491.712C424.747 491.036 430.764 488.087 432.177 486.244C434.51 483.296 433.651 480.285 429.843 478.074C428.492 477.337 427.387 476.415 427.387 476.108C427.387 475.739 429.782 474.388 432.791 472.975C456.555 461.978 475.407 449.753 495.855 432.183C509.242 420.634 524.102 404.538 536.015 388.566C540.743 382.3 554.191 361.904 555.296 359.385C555.542 358.894 556.217 357.603 556.831 356.62C561.621 348.696 573.657 324.675 574.701 320.866C575.376 318.409 576.236 319.023 578.324 323.447C579.797 326.518 581.64 328.914 584.833 332.109C591.465 338.559 598.404 341.569 607 341.569C619.957 341.508 630.458 334.935 636.414 323.201C638.44 319.331 639.239 315.46 639.239 309.624C639.239 302.866 638.256 298.628 635.616 293.959C634.572 292.116 633.712 290.211 633.712 289.781C633.712 289.351 636.537 286.341 640.037 283.146C689.592 237.686 724.716 196.833 744.796 161.57C747.559 156.778 754.191 143.447 755.788 139.454C756.586 137.611 757.446 135.523 757.753 134.847C759.411 130.976 762.972 118.813 764.63 111.502C765.736 106.342 765.736 84.2258 764.569 80.4784C760.025 65.673 756.77 59.8983 747.866 51.2362C738.778 42.3898 728.83 37.2294 713.54 33.4206C706.97 31.7619 682.837 31.7619 674.24 33.3591C659.38 36.1851 647.529 40.4239 640.037 45.5229C637.335 47.4273 635.616 47.7345 634.51 46.6287C633.835 45.9529 631.256 45.4 619.282 43.3113C616.58 42.8198 611.913 42.0212 608.843 41.4683C595.149 39.011 570.955 35.2021 558.489 33.5434C531.962 29.9803 520.111 28.6288 498.004 26.4172C491.618 25.8029 478.354 24.7585 470.064 24.267C467.731 24.0827 464.415 23.837 462.696 23.6527C461.038 23.4684 455.204 23.2227 449.8 23.0384C444.397 22.8541 439.484 22.4855 438.809 22.3012C438.195 22.1169 426.589 21.7483 413.018 21.3797C399.509 21.0725 384.403 20.7039 379.49 20.581C374.578 20.4582 369.911 20.581 369.051 20.8882ZM103.469 65.7958C103.715 66.103 103.469 66.9016 103.039 67.4545C100.89 69.9733 97.5742 76.3009 96.039 80.7855C94.5653 85.2087 94.381 86.6217 94.381 94.3008C94.3196 103.946 94.9951 107.079 98.7409 114.697C104.145 125.693 114.461 134.232 126.804 137.918C131.962 139.516 144.98 139.516 150.138 138.041C158.059 135.707 164.63 131.959 170.525 126.369C171.999 125.017 172.613 124.71 172.797 125.386C172.92 125.877 173.227 130.239 173.411 135.154C173.657 140.069 174.086 146.519 174.393 149.591C174.7 152.601 175.253 158.13 175.622 161.877C177.218 178.219 177.525 180.799 179.674 194.744C181.824 208.997 187.043 235.72 189.008 242.969C189.438 244.321 190.298 247.761 191.034 250.648C193.798 261.768 195.824 268.832 198.71 277.617C199.509 280.136 200 282.348 199.816 282.532C199.631 282.716 198.096 282.102 196.315 281.119C190.298 277.863 147.989 234.614 128.032 211.392C115.628 196.956 101.811 179.632 95.6706 170.785C87.9334 159.543 85.7842 156.287 81.2401 148.669C71.2309 131.898 65.7657 118.751 63.5551 106.342C62.4498 99.9527 62.4498 96.6967 63.4937 91.8435C66.4412 78.1439 76.3276 70.4648 96.4074 66.2873C102.855 64.9972 102.978 64.9972 103.469 65.7958ZM690.267 66.0416C702.671 68.3146 713.295 73.2293 718.33 79.004C723.856 85.2087 726.006 93.8708 724.655 104.253C724.225 107.57 723.488 111.502 722.997 113.038C720.663 120.533 720.111 122.069 719.374 123.789C718.883 124.772 718.084 126.738 717.532 128.089C714.584 135.092 708.075 147.011 701.627 156.963C683.206 185.591 654.652 219.317 614.431 259.802C597.237 277.126 591.403 282.286 590.298 281.119C589.991 280.812 591.71 274.607 593.798 268.464C594.658 265.945 599.632 247.024 600.86 241.74C601.412 239.037 602.272 235.29 602.702 233.447C608.044 210.41 612.834 178.341 615.045 151.434C615.229 148.731 615.474 145.966 615.536 145.29C615.597 144.615 615.904 140.13 616.15 135.277C616.457 130.424 616.948 126.553 617.255 126.553C617.624 126.553 619.036 127.598 620.51 128.826C624.44 132.328 629.414 135.092 635.37 137.181C640.344 138.901 641.449 139.086 649.064 139.086C658.52 139.147 661.406 138.471 669.819 134.294C677.556 130.485 685.109 123.113 688.794 115.802C692.724 108 693.89 103.27 693.89 94.9152C693.89 91.2292 693.583 87.0517 693.215 85.7002C692.908 84.3487 692.355 82.2599 692.048 81.0313C691.373 78.3282 687.688 71.202 685.6 68.4375C684.004 66.3487 683.635 65.1201 684.618 65.1201C684.925 65.1201 687.443 65.5501 690.267 66.0416Z" fill="url(#paint0_linear_884_2)"/>
<path d="M469 222C469 263.421 435.421 297 394 297C352.579 297 319 263.421 319 222C319 180.579 352.579 147 394 147C435.421 147 469 180.579 469 222Z" fill="black"/>
<path d="M394.072 246.491C390.623 246.491 387.552 245.898 384.858 244.712C382.179 243.512 380.062 241.864 378.507 239.771C376.968 237.661 376.175 235.229 376.129 232.473H386.197C386.259 233.628 386.636 234.644 387.329 235.522C388.037 236.384 388.976 237.053 390.146 237.531C391.316 238.008 392.632 238.246 394.095 238.246C395.619 238.246 396.966 237.977 398.136 237.438C399.306 236.899 400.222 236.153 400.884 235.198C401.546 234.244 401.877 233.143 401.877 231.896C401.877 230.634 401.523 229.517 400.815 228.548C400.122 227.562 399.121 226.792 397.813 226.238C396.52 225.684 394.98 225.407 393.194 225.407H388.784V218.063H393.194C394.703 218.063 396.035 217.802 397.189 217.278C398.359 216.755 399.268 216.031 399.914 215.108C400.561 214.169 400.884 213.075 400.884 211.828C400.884 210.643 400.599 209.604 400.03 208.711C399.475 207.803 398.69 207.094 397.674 206.586C396.674 206.078 395.503 205.824 394.164 205.824C392.809 205.824 391.57 206.071 390.446 206.563C389.322 207.041 388.422 207.726 387.744 208.619C387.067 209.511 386.705 210.558 386.659 211.759H377.076C377.122 209.034 377.899 206.633 379.408 204.554C380.917 202.476 382.949 200.852 385.504 199.682C388.075 198.496 390.977 197.904 394.21 197.904C397.474 197.904 400.33 198.496 402.778 199.682C405.225 200.867 407.127 202.468 408.482 204.485C409.852 206.486 410.529 208.734 410.514 211.228C410.529 213.876 409.705 216.085 408.043 217.856C406.396 219.626 404.248 220.75 401.6 221.227V221.597C405.079 222.043 407.727 223.252 409.544 225.222C411.376 227.177 412.284 229.625 412.269 232.566C412.284 235.26 411.507 237.654 409.936 239.747C408.381 241.841 406.234 243.488 403.494 244.689C400.753 245.89 397.613 246.491 394.072 246.491Z" fill="white"/>
<defs>
<linearGradient id="paint0_linear_884_2" x1="393.847" y1="20.5339" x2="393.847" y2="742.771" gradientUnits="userSpaceOnUse">
<stop stop-color="#614E1A"/>
<stop offset="1" stop-color="#C7A035"/>
</linearGradient>
</defs>
</svg>
