<svg width="786" height="763" viewBox="0 0 786 763" fill="none" xmlns="http://www.w3.org/2000/svg">
<path d="M369.051 20.8882C368.191 21.1339 360.209 21.4411 351.243 21.4411C342.278 21.5025 330.856 21.8097 325.76 22.1169C320.724 22.4855 313.233 22.9155 309.18 23.0998C299.969 23.5298 268.222 26.1715 257.599 27.4001C253.239 27.8916 247.283 28.5059 244.396 28.8131C241.51 29.1202 237.396 29.6731 235.186 30.0417C231.01 30.7175 224.624 31.7004 218.299 32.5605C212.097 33.482 195.64 36.3079 188.21 37.7209C175.806 40.1168 154.314 44.97 151.612 46.0144C150.445 46.4444 149.094 45.9529 144.611 43.557C135.646 38.8267 126.189 35.6322 113.908 33.4206C105.066 31.7619 80.9331 31.7619 74.3012 33.3591C58.4584 37.2294 47.8351 43.0041 38.3171 53.0177C27.264 64.5672 22.8428 75.6252 22.2901 93.0722C21.7988 108.676 25.0534 123.174 33.5274 142.342C46.3613 171.522 68.3448 202.055 103.531 239.59C118.575 255.624 126.497 263.365 150.936 285.849C152.717 287.447 154.129 289.167 154.129 289.658C154.129 290.15 153.331 291.993 152.349 293.774C147.313 303.174 147.252 315.399 152.164 324.675C154.559 329.098 161.682 335.979 166.104 338.129C177.832 343.842 191.034 342.307 201.289 334.197C204.912 331.31 209.456 324.737 211.053 320.191C211.667 318.47 212.342 316.996 212.649 316.996C212.956 316.996 213.878 318.716 214.799 320.866C217.623 327.501 229.352 350.846 233.528 357.911C263.125 408.9 302.18 446.251 351.059 470.088C357.261 473.159 362.296 475.862 362.296 476.108C362.296 476.415 361.682 476.845 360.946 477.03C360.147 477.275 358.612 478.32 357.568 479.364C353.822 482.866 355.358 486.49 361.867 489.562C363.954 490.545 367.148 491.651 368.928 492.081C372.429 492.879 372.92 493.862 370.648 495.398C368.56 496.75 362.849 503.937 360.577 508.115C357.63 513.459 355.112 521.814 354.375 528.695C352.41 546.94 359.84 565.616 372.736 575.2C378.201 579.193 378.324 579.316 377.955 579.93C377.771 580.237 376.297 580.667 374.701 580.852C363.954 582.326 355.542 586.811 355.542 590.988C355.542 594.244 360.761 597.807 368.191 599.65C369.727 600.08 371.139 600.756 371.323 601.247C371.569 601.8 370.279 603.582 368.069 605.793C360.7 613.288 348.787 619.8 337.12 622.626C322.321 626.189 305.557 631.595 295.057 636.203C294.074 636.633 290.758 637.984 287.688 639.275C281.67 641.732 262.143 651.193 256.678 654.264C232.299 668.087 219.22 679.452 215.965 689.834C214.492 694.564 214.43 712.687 215.965 714.162C219.834 718.093 250.783 727.247 273.257 731.117C282.1 732.653 288.241 733.636 294.136 734.435C297.697 734.926 303.654 735.725 307.338 736.278C356.893 743.158 401.904 744.571 447.344 740.516C466.012 738.919 473.872 737.936 496.469 734.435C499.539 733.943 503.961 733.267 506.294 732.899C508.689 732.592 512.005 731.977 513.663 731.67C515.382 731.363 519.619 730.503 523.181 729.827C543.506 725.957 569.113 718.155 573.043 714.592C574.025 713.793 574.148 712.38 574.148 702.489C574.148 695.609 573.902 690.51 573.411 689.22C569.972 679.145 555.788 667.104 531.164 653.466C519.804 647.138 508.935 642.162 488.486 633.868C483.635 631.841 462.573 625.083 457.476 623.855C441.081 619.985 431.747 615.377 422.782 606.899C417.685 601.985 417.071 600.51 420.203 599.896C426.159 598.667 432.607 594.981 433.282 592.278C433.528 591.48 433.282 590.005 432.729 588.899C431.256 585.766 423.089 582.203 414.369 580.852C411.913 580.483 411.176 579.009 413.141 578.271C416.273 577.104 423.826 570.285 426.957 565.8C433.405 556.647 436.291 547.002 436.291 534.777C436.291 526.115 435.309 520.77 432.484 513.582C430.335 508.176 424.992 500.19 421.185 496.75C417.624 493.555 417.562 492.388 421.062 491.712C424.747 491.036 430.764 488.087 432.177 486.244C434.51 483.296 433.651 480.285 429.843 478.074C428.492 477.337 427.387 476.415 427.387 476.108C427.387 475.739 429.782 474.388 432.791 472.975C456.555 461.978 475.407 449.753 495.855 432.183C509.242 420.634 524.102 404.538 536.015 388.566C540.743 382.3 554.191 361.904 555.296 359.385C555.542 358.894 556.217 357.603 556.831 356.62C561.621 348.696 573.657 324.675 574.701 320.866C575.376 318.409 576.236 319.023 578.324 323.447C579.797 326.518 581.64 328.914 584.833 332.109C591.465 338.559 598.404 341.569 607 341.569C619.957 341.508 630.458 334.935 636.414 323.201C638.44 319.331 639.239 315.46 639.239 309.624C639.239 302.866 638.256 298.628 635.616 293.959C634.572 292.116 633.712 290.211 633.712 289.781C633.712 289.351 636.537 286.341 640.037 283.146C689.592 237.686 724.716 196.833 744.796 161.57C747.559 156.778 754.191 143.447 755.788 139.454C756.586 137.611 757.446 135.523 757.753 134.847C759.411 130.976 762.972 118.813 764.63 111.502C765.736 106.342 765.736 84.2258 764.569 80.4784C760.025 65.673 756.77 59.8983 747.866 51.2362C738.778 42.3898 728.83 37.2294 713.54 33.4206C706.97 31.7619 682.837 31.7619 674.24 33.3591C659.38 36.1851 647.529 40.4239 640.037 45.5229C637.335 47.4273 635.616 47.7345 634.51 46.6287C633.835 45.9529 631.256 45.4 619.282 43.3113C616.58 42.8198 611.913 42.0212 608.843 41.4683C595.149 39.011 570.955 35.2021 558.489 33.5434C531.962 29.9803 520.111 28.6288 498.004 26.4172C491.618 25.8029 478.354 24.7585 470.064 24.267C467.731 24.0827 464.415 23.837 462.696 23.6527C461.038 23.4684 455.204 23.2227 449.8 23.0384C444.397 22.8541 439.484 22.4855 438.809 22.3012C438.195 22.1169 426.589 21.7483 413.018 21.3797C399.509 21.0725 384.403 20.7039 379.49 20.581C374.578 20.4582 369.911 20.581 369.051 20.8882ZM103.469 65.7958C103.715 66.103 103.469 66.9016 103.039 67.4545C100.89 69.9733 97.5742 76.3009 96.039 80.7855C94.5653 85.2087 94.381 86.6217 94.381 94.3008C94.3196 103.946 94.9951 107.079 98.7409 114.697C104.145 125.693 114.461 134.232 126.804 137.918C131.962 139.516 144.98 139.516 150.138 138.041C158.059 135.707 164.63 131.959 170.525 126.369C171.999 125.017 172.613 124.71 172.797 125.386C172.92 125.877 173.227 130.239 173.411 135.154C173.657 140.069 174.086 146.519 174.393 149.591C174.7 152.601 175.253 158.13 175.622 161.877C177.218 178.219 177.525 180.799 179.674 194.744C181.824 208.997 187.043 235.72 189.008 242.969C189.438 244.321 190.298 247.761 191.034 250.648C193.798 261.768 195.824 268.832 198.71 277.617C199.509 280.136 200 282.348 199.816 282.532C199.631 282.716 198.096 282.102 196.315 281.119C190.298 277.863 147.989 234.614 128.032 211.392C115.628 196.956 101.811 179.632 95.6706 170.785C87.9334 159.543 85.7842 156.287 81.2401 148.669C71.2309 131.898 65.7657 118.751 63.5551 106.342C62.4498 99.9527 62.4498 96.6967 63.4937 91.8435C66.4412 78.1439 76.3276 70.4648 96.4074 66.2873C102.855 64.9972 102.978 64.9972 103.469 65.7958ZM690.267 66.0416C702.671 68.3146 713.295 73.2293 718.33 79.004C723.856 85.2087 726.006 93.8708 724.655 104.253C724.225 107.57 723.488 111.502 722.997 113.038C720.663 120.533 720.111 122.069 719.374 123.789C718.883 124.772 718.084 126.738 717.532 128.089C714.584 135.092 708.075 147.011 701.627 156.963C683.206 185.591 654.652 219.317 614.431 259.802C597.237 277.126 591.403 282.286 590.298 281.119C589.991 280.812 591.71 274.607 593.798 268.464C594.658 265.945 599.632 247.024 600.86 241.74C601.412 239.037 602.272 235.29 602.702 233.447C608.044 210.41 612.834 178.341 615.045 151.434C615.229 148.731 615.474 145.966 615.536 145.29C615.597 144.615 615.904 140.13 616.15 135.277C616.457 130.424 616.948 126.553 617.255 126.553C617.624 126.553 619.036 127.598 620.51 128.826C624.44 132.328 629.414 135.092 635.37 137.181C640.344 138.901 641.449 139.086 649.064 139.086C658.52 139.147 661.406 138.471 669.819 134.294C677.556 130.485 685.109 123.113 688.794 115.802C692.724 108 693.89 103.27 693.89 94.9152C693.89 91.2292 693.583 87.0517 693.215 85.7002C692.908 84.3487 692.355 82.2599 692.048 81.0313C691.373 78.3282 687.688 71.202 685.6 68.4375C684.004 66.3487 683.635 65.1201 684.618 65.1201C684.925 65.1201 687.443 65.5501 690.267 66.0416Z" fill="url(#paint0_linear_884_5)"/>
<path d="M318.394 118.389C304.588 124.654 297.952 130.733 295.399 139.458C295.005 140.85 294.889 141.987 294.796 145.514C294.68 149.621 294.703 149.899 295.167 150.641C295.423 151.059 295.91 151.546 296.235 151.686C298.416 152.683 304.008 151.082 307.836 148.368C309.6 147.115 312.43 144.168 313.707 142.219C314.913 140.386 316.723 136.696 317.582 134.33C318.718 131.104 319.832 126.441 319.902 124.492C319.948 123.447 320.203 121.522 320.459 120.176C321.016 117.415 321.016 117.391 320.784 117.391C320.668 117.391 319.6 117.855 318.394 118.389Z" fill="black"/>
<path d="M468.193 117.787C468.634 119.504 469.33 124.307 469.145 124.191C468.565 123.843 469.748 129.203 471.21 133.611C472.88 138.577 475.108 142.498 478.031 145.561C481.582 149.297 485.99 151.594 490.143 151.895C493.485 152.151 494.181 151.385 494.413 147.301C495.132 134.864 487.87 126.001 470.815 118.436C469.516 117.856 468.379 117.392 468.286 117.392C468.17 117.392 468.147 117.578 468.193 117.787Z" fill="black"/>
<path d="M282.476 126.488C278.763 133.426 276.652 139.064 275.793 144.308C275.283 147.371 275.491 154.518 276.164 157.232C277.023 160.852 278.949 164.495 280.921 166.328C281.78 167.117 282.104 167.279 282.916 167.279C284.866 167.279 287.139 165.052 288.949 161.362C290.202 158.81 291.339 154.819 291.154 153.705C291.038 153.172 291.061 153.079 291.27 153.357C291.455 153.636 291.502 153.589 291.386 153.125C291.339 152.801 291.362 151.548 291.455 150.341C291.803 146.35 291.2 142.081 289.599 137.347C288.648 134.47 286.559 129.737 284.935 126.72L283.659 124.307L282.476 126.488Z" fill="black"/>
<path d="M504.181 126.697C501.072 132.521 498.821 138.554 497.962 143.287C497.266 147.185 497.429 153.288 498.31 156.722C499.401 160.968 502.046 165.377 504.343 166.792C504.807 167.07 505.503 167.279 506.083 167.279C507.684 167.279 509.285 165.539 511.211 161.734C512.279 159.622 513.392 155.678 513.207 154.68C513.114 154.239 513.16 154.077 513.346 154.193C513.508 154.309 513.532 154.262 513.439 154.077C513.323 153.914 513.392 152.754 513.532 151.501C514.344 145.12 512.07 136.628 506.942 127.045L505.48 124.307L504.181 126.697Z" fill="black"/>
<path d="M312.013 148.344C307.047 150.015 305.052 150.827 302.198 152.312C294.216 156.535 289.343 161.895 287.533 168.438C286.976 170.526 286.443 175.353 286.721 176.002C286.953 176.559 287 176.698 287.046 177.139C287.092 177.882 288.322 178.879 289.389 179.065C290.573 179.274 294.355 178.995 295.144 178.647C295.422 178.531 295.654 178.462 295.654 178.508C295.654 178.555 294.471 179.483 293.056 180.573C284.934 186.722 280.572 192.361 278.809 198.95C278.484 200.203 278.368 201.41 278.368 204.171C278.368 206.143 278.461 208.069 278.554 208.463C278.67 208.974 278.67 209.067 278.484 208.812C278.322 208.556 278.298 208.858 278.391 209.856C278.902 214.612 281.431 215.123 287.533 211.666C289.807 210.389 291.779 208.788 293.172 207.071C294.425 205.517 296.466 201.665 297.348 199.182C298.16 196.908 299.204 192.152 299.019 191.456C298.926 191.061 298.972 190.945 299.158 191.084C299.367 191.2 299.39 191.084 299.297 190.667C299.204 190.365 299.297 188.95 299.483 187.557C299.668 186.165 299.877 183.358 299.947 181.316C300.109 177.186 300.225 176.072 300.504 176.165C300.898 176.258 303.775 173.937 305.469 172.151C308.3 169.157 310.412 165.654 312.593 160.317C314.24 156.28 315.168 152.799 314.472 153.24C314.24 153.356 315.075 150.084 315.725 148.251C316.119 147.114 316.119 147.091 315.911 147.091C315.795 147.091 314.054 147.648 312.013 148.344Z" fill="black"/>
<path d="M473.158 147.209C473.158 147.348 473.947 150.132 474.713 152.754C474.806 153.056 474.759 153.125 474.55 153.009C474.318 152.87 474.272 153.102 474.365 154.077C474.643 156.745 478.1 164.75 480.56 168.463C481.21 169.437 482.486 171.038 483.414 172.036C485.177 173.939 488.704 176.769 488.704 176.305C488.704 176.143 488.751 176.073 488.82 176.143C488.96 176.259 489.493 186.329 489.47 188.162C489.447 189.044 489.516 189.299 489.632 188.974C489.772 188.673 489.795 188.905 489.702 189.554C489.563 190.83 490.537 195.773 491.512 198.696C492.417 201.411 494.459 205.356 495.828 207.073C497.22 208.79 499.192 210.391 501.466 211.667C505.179 213.755 507.406 214.335 508.868 213.569C509.866 213.059 510.608 211.435 510.446 210.135C510.376 209.602 510.399 209.323 510.492 209.486C510.608 209.648 510.678 209.3 510.701 208.65C510.701 208.047 510.724 206.121 510.747 204.404C510.817 200.367 510.121 197.304 508.381 193.893C506.385 189.949 501.628 184.774 496.315 180.76C493.391 178.556 492.301 177.651 493.647 178.51C494.273 178.927 498.218 179.298 499.61 179.066C500.677 178.881 501.907 177.883 501.953 177.141C502.023 176.491 502.046 176.375 502.232 176.189C502.51 175.911 502.417 172.802 502.046 170.737C501.164 165.609 499.099 161.85 495.062 157.998C490.862 153.984 483.576 150.179 475.502 147.789C474.574 147.51 473.645 147.232 473.483 147.162C473.297 147.093 473.158 147.116 473.158 147.209Z" fill="black"/>
<path d="M266.814 156.258C265.398 160.991 264.981 162.499 264.47 164.843C263.426 169.715 263.101 173.01 263.287 176.908C263.38 178.811 263.449 180.644 263.449 180.969C263.472 183.498 264.517 187.605 265.769 190.134C267.115 192.803 269.552 195.819 271.501 197.234C272.916 198.255 274.03 198.418 275.26 197.791C276.095 197.35 277.255 195.564 278.09 193.475C279.459 190.041 279.761 187.884 279.738 181.897C279.738 178.974 279.645 177.953 279.227 176.398C277.835 171.224 275.004 166.049 270.062 159.738C266.767 155.538 266.976 155.747 266.814 156.258Z" fill="black"/>
<path d="M520.725 157.58C517.384 161.895 516.618 162.916 515.203 165.074C510.864 171.71 508.984 177.441 509.17 183.66C509.193 185.215 509.332 186.444 509.425 186.375C509.518 186.305 509.541 186.537 509.448 186.862C509.1 188.277 510.608 193.452 512.07 195.888C513.045 197.489 513.973 198.139 515.319 198.139C516.618 198.139 518.59 196.63 520.609 194.148C522.349 191.943 523.463 189.925 524.321 187.396C525.482 183.938 525.714 181.595 525.69 174.704C525.667 170.62 525.574 169.506 525.064 166.838C524.461 163.728 522.349 155.909 522.117 155.932C522.047 155.932 521.421 156.675 520.725 157.58Z" fill="black"/>
<path d="M254.724 193.428C254.84 195.192 254.933 197.326 254.933 198.185C254.933 199.02 254.979 199.647 255.049 199.531C255.118 199.438 255.188 200.041 255.211 200.876C255.258 202.965 256.279 208.093 257.276 211.109C259.736 218.673 264.005 223.871 270.177 226.794C274.47 228.836 276.465 227.746 276.813 223.128C276.906 222.084 276.976 219.439 276.953 217.281C276.953 213.453 276.929 213.267 276.187 211.132C274.075 204.96 269.667 199.855 261.963 194.704C259.968 193.359 254.863 190.249 254.678 190.249C254.585 190.249 254.631 191.688 254.724 193.428Z" fill="black"/>
<path d="M531.769 191.757C519.564 199.113 513.648 205.795 512.232 213.916C511.861 216.121 511.884 221.318 512.279 222.385C512.395 222.664 512.372 222.757 512.209 222.664C511.838 222.432 512.511 225.611 512.998 226.446C513.996 228.163 515.922 228.209 519.216 226.585C524.46 223.986 528.289 219.74 530.748 213.731C532.257 210.041 533.834 203.405 533.579 201.874C533.51 201.41 533.533 201.155 533.649 201.317C533.765 201.456 533.834 201.131 533.834 200.505C533.858 199.902 533.974 197.953 534.136 196.166C534.298 194.379 534.461 192.314 534.531 191.572C534.6 190.852 534.554 190.249 534.461 190.249C534.368 190.249 533.162 190.922 531.769 191.757Z" fill="black"/>
<path d="M296.096 205.495C286.861 215.217 282.731 223.686 283.241 231.9C283.311 233.292 283.427 235.288 283.473 236.309C283.636 239.488 284.819 242.922 286.072 243.734C287.673 244.801 289.506 244.244 292.476 241.831C295.284 239.511 297.302 236.889 298.602 233.803C299.553 231.529 300.319 228.629 300.412 226.796C300.458 226.03 300.62 224.15 300.76 222.619C301.038 219.811 300.945 215.89 300.504 212.526C300.156 209.764 298.834 203.012 298.648 203.012C298.555 203.012 297.418 204.126 296.096 205.495Z" fill="black"/>
<path d="M490.143 204.056C488.658 210.529 488.194 214.799 488.287 220.808C488.333 223.5 488.403 225.681 488.472 225.635C488.542 225.588 488.612 226.145 488.612 226.864C488.658 228.489 489.586 232.062 490.537 234.15C492.301 238.072 495.944 242.016 499.378 243.756C501.466 244.801 503.09 244.244 504.111 242.155C505.364 239.58 505.759 236.703 505.735 230.275C505.735 227.236 505.643 226.516 505.109 224.544C503.485 218.627 499.54 212.363 493.368 205.982L490.398 202.919L490.143 204.056Z" fill="black"/>
<path d="M250.641 223.129C250.641 223.175 251.058 224.057 251.592 225.078C252.683 227.282 253.031 228.141 252.752 227.978C252.404 227.746 252.334 228.883 252.613 229.997C253.332 232.805 258.762 240.856 262.173 244.105C265.05 246.866 268.693 249.256 271.059 249.929C271.895 250.161 272.196 250.3 271.755 250.23C271.315 250.161 269.946 249.952 268.739 249.766C266.024 249.372 260.548 248.954 257.671 248.954H255.513L256.743 250.857C258.414 253.455 258.414 253.455 258.112 253.27C257.694 253.015 257.509 254.221 257.81 255.219C258.39 257.168 263.866 263.943 267.184 266.867C269.389 268.793 272.336 270.765 274.238 271.624C276.512 272.621 278.74 273.317 279.853 273.341L280.921 273.364L279.877 273.549C279.296 273.665 276.999 274.037 274.772 274.385C272.544 274.733 270.665 275.058 270.595 275.104C270.549 275.15 270.595 275.266 270.711 275.359C271.338 275.8 273.913 278.7 273.565 278.584C273.148 278.445 272.916 278.816 272.916 279.675C272.916 280.557 274.145 282.181 276.187 284.014C284.285 291.277 290.828 294.455 297.975 294.525C299.437 294.525 301.015 294.479 301.455 294.363C301.896 294.27 300.643 294.757 298.671 295.43C293.195 297.333 291.478 297.982 291.478 298.145C291.478 298.214 292.151 298.794 292.986 299.398C294.263 300.326 295.353 301.347 294.541 300.836C294.239 300.651 293.798 301.393 293.798 302.089C293.798 304.386 305.075 310.466 312.129 311.974C315.029 312.6 319.716 312.554 322.431 311.881C325.053 311.231 328.487 309.607 329.601 308.516C330.506 307.588 330.9 306.382 330.483 305.639C330.297 305.245 330.39 305.082 331.155 304.502C331.666 304.131 332.084 303.76 332.084 303.667C332.084 303.574 331.48 302.739 330.738 301.811C326.979 297.101 322.199 294.2 316.63 293.249C314.565 292.901 308.092 293.11 305.632 293.597C302.592 294.2 302.221 294.2 304.263 293.666C305.446 293.365 306.63 292.878 307.094 292.506C307.976 291.833 308.509 290.557 308.277 289.652C308.161 289.235 308.3 289.049 308.857 288.747C309.252 288.562 309.577 288.307 309.577 288.214C309.577 288.121 309.205 287.332 308.764 286.474C304.982 279.118 298.926 274.849 290.643 273.758C288.021 273.41 287.696 273.317 288.531 273.062C289.715 272.737 290.48 271.716 290.596 270.324C290.62 269.86 290.805 269.558 291.06 269.466C291.594 269.303 291.594 269.326 290.782 266.82C288.276 259.187 283.705 254.43 275.932 251.46C274.981 251.112 274.563 250.88 275.004 250.973C275.445 251.089 276.907 251.158 278.252 251.158C280.132 251.158 280.874 251.066 281.547 250.741C282.452 250.277 283.241 248.977 283.055 248.258C282.986 247.98 283.102 247.794 283.38 247.724C283.914 247.585 283.914 247.237 283.473 244.847C282.058 237.422 277.695 231.668 270.851 228.187C267.208 226.354 261.709 224.776 255.397 223.779C253.355 223.477 251.453 223.175 251.174 223.106C250.873 223.059 250.641 223.059 250.641 223.129Z" fill="black"/>
<path d="M537.2 223.222C531.816 224.057 529.45 224.498 526.874 225.171C515.644 228.002 509.217 233.199 506.455 241.691C505.852 243.525 505.133 247.307 505.342 247.608C505.388 247.724 505.667 247.794 505.945 247.817C506.223 247.817 506.316 247.887 506.177 247.956C505.783 248.096 505.806 248.838 506.223 249.627C506.803 250.764 507.964 251.158 510.864 251.158C512.279 251.158 513.741 251.066 514.112 250.973C514.507 250.857 513.811 251.182 512.581 251.692C509.425 252.968 506.78 254.616 504.669 256.588C501.699 259.372 499.634 262.69 498.358 266.774C497.615 269.118 497.615 269.326 498.288 269.605C498.566 269.721 498.682 269.814 498.543 269.814C498.358 269.837 498.334 270.092 498.427 270.603C498.775 272.134 499.378 272.807 500.608 273.085C501.328 273.248 501.328 273.248 500.771 273.364C500.446 273.433 499.1 273.665 497.754 273.874C490.283 275.058 484.923 278.654 481.187 284.989C480.607 285.963 479.981 287.123 479.795 287.564C479.47 288.33 479.47 288.33 480.329 288.817C480.793 289.095 481.048 289.328 480.932 289.328C480.584 289.328 480.538 290.232 480.839 291.137C481.164 292.112 482.603 293.179 483.856 293.388C484.366 293.481 484.761 293.597 484.691 293.643C484.644 293.69 483.415 293.574 481.953 293.365C478.38 292.854 472.788 293.017 470.491 293.666C465.479 295.105 461.418 297.936 457.845 302.484L456.894 303.69L457.822 304.433C458.611 305.059 458.727 305.245 458.518 305.616C458.123 306.382 458.495 307.588 459.399 308.516C460.513 309.607 463.947 311.231 466.569 311.881C469.284 312.554 473.971 312.6 476.871 311.974C483.832 310.489 495.202 304.363 495.202 302.112C495.202 301.44 494.784 300.651 494.483 300.813C494.367 300.906 494.274 300.906 494.274 300.859C494.274 300.79 495.063 300.187 496.014 299.49C496.965 298.818 497.754 298.191 497.754 298.121C497.754 298.052 497.267 297.82 496.664 297.611C488.566 294.827 486.872 294.223 487.661 294.363C489.03 294.641 493.253 294.548 494.854 294.223C499.68 293.226 504.994 290.557 509.611 286.752C515.203 282.135 516.897 279.953 515.76 278.816C515.458 278.538 515.621 278.26 516.943 276.821C517.779 275.893 518.428 275.127 518.382 275.081C518.289 275.034 515.899 274.617 510.052 273.689C508.428 273.41 508.265 273.364 509.147 273.341C510.261 273.317 512.488 272.621 514.739 271.624C517.964 270.185 522.118 266.936 525.204 263.456C527.617 260.741 530.424 256.982 530.981 255.729C531.468 254.639 531.468 253.432 530.981 253.548C530.61 253.618 530.749 253.339 532.327 250.857L533.487 249.07L531.816 249C529.705 248.908 523.417 249.325 520.493 249.766C516.34 250.369 516.34 250.369 517.802 249.975C519.96 249.372 523.463 247.191 526.271 244.638C530.749 240.601 537.107 230.6 536.55 228.489C536.503 228.257 536.364 228.141 536.248 228.21C535.97 228.373 536.318 227.514 537.432 225.287C537.965 224.243 538.36 223.315 538.313 223.222C538.267 223.129 537.78 223.129 537.2 223.222ZM515.551 250.718C515.481 250.787 515.273 250.81 515.11 250.741C514.925 250.671 514.994 250.601 515.249 250.601C515.505 250.578 515.644 250.648 515.551 250.718ZM485.619 293.875C485.549 293.945 485.341 293.968 485.178 293.899C484.993 293.829 485.062 293.759 485.317 293.759C485.573 293.736 485.712 293.806 485.619 293.875ZM486.547 294.107C486.478 294.177 486.269 294.2 486.106 294.131C485.921 294.061 485.99 293.991 486.246 293.991C486.501 293.968 486.64 294.038 486.547 294.107Z" fill="black"/>
<path d="M483.647 234.057C482.579 237.306 481.512 241.459 480.909 244.661C480.491 246.842 480.259 256.703 480.63 256.471C480.723 256.402 480.746 256.657 480.677 257.051C480.491 257.98 481.164 261.205 482.023 263.409C483.763 267.934 488.914 273.549 491.304 273.549C492.626 273.549 494.181 271.925 495.411 269.256C496.641 266.657 496.965 264.059 496.919 257.423C496.896 254.638 496.803 253.571 496.385 252.016C494.854 246.169 491.605 240.067 486.57 233.57C485.665 232.386 484.853 231.366 484.784 231.273C484.691 231.18 484.18 232.433 483.647 234.057Z" fill="black"/>
<path d="M301.85 234.521C294.773 243.988 291.571 252.086 292.058 259.279C292.128 260.555 292.244 262.527 292.29 263.687C292.406 266.309 292.986 268.421 294.216 270.486C295.237 272.203 296.258 273.224 297.186 273.456C299.553 274.059 305.052 268.397 306.978 263.409C307.766 261.39 308.532 257.956 308.323 257.422C308.254 257.213 308.3 256.517 308.439 255.844C308.555 255.195 308.671 253.13 308.671 251.273C308.695 247.677 308.323 244.684 307.349 240.716C306.583 237.537 304.634 231.319 304.425 231.319C304.309 231.319 303.149 232.757 301.85 234.521Z" fill="black"/>
<path d="M314.913 252.458C310.528 261.391 309.02 267.122 309.159 274.292C309.206 276.287 309.298 277.795 309.391 277.656C309.507 277.494 309.507 277.703 309.438 278.097C308.997 280.371 311.224 286.311 313.637 289.397C315.401 291.625 316.909 292.181 318.51 291.184C320.134 290.186 323.035 285.615 324.056 282.482C324.52 281.021 325.123 277.911 324.984 277.679C324.914 277.587 324.984 276.426 325.123 275.104C325.726 269.141 323.94 262.273 319.554 253.711C318.58 251.785 317.535 249.882 317.28 249.441L316.793 248.629L314.913 252.458Z" fill="black"/>
<path d="M471.326 250.369C468.448 255.451 465.989 261.182 464.922 265.266C464.017 268.769 463.831 270.695 463.97 275.15C464.133 280.649 464.875 283.434 467.126 287.146C470.281 292.367 472.532 292.97 475.363 289.397C477.544 286.589 479.331 282.134 479.563 278.886C479.609 278.05 479.748 276.31 479.864 275.011C480.468 268.328 478.565 261.089 473.692 251.413L472.3 248.629L471.326 250.369Z" fill="black"/>
<path d="M330.575 265.474C330.529 265.637 330.25 267.284 329.949 269.141C329.508 271.995 329.438 273.503 329.415 279.118C329.369 286.288 329.578 288.422 330.575 291.996C332.107 297.379 335.309 301.973 339.578 304.804C342.362 306.66 343.964 306.428 345.263 304.015C346.098 302.414 346.98 299.258 347.073 297.448C347.096 296.752 347.189 294.919 347.282 293.388C347.49 290.255 347.258 288.446 346.33 285.522C344.799 280.696 341.736 276.101 336.376 270.556C332.965 267.029 330.715 265.057 330.575 265.474Z" fill="black"/>
<path d="M454.688 268.607C447.983 275.196 444.595 280.023 442.762 285.591C442.02 287.912 441.486 291.647 441.718 293.248C441.788 293.828 441.904 295.36 441.95 296.636C442.112 300.534 443.481 304.687 444.943 305.616C446.73 306.729 449.491 305.36 452.995 301.671C455.176 299.397 456.614 297.054 457.751 293.991C458.61 291.694 459.306 288.561 459.12 287.912C459.027 287.656 459.074 287.471 459.236 287.471C459.422 287.471 459.468 287.285 459.399 286.984C459.329 286.728 459.422 285.197 459.631 283.573C459.863 281.508 459.932 279.582 459.84 277.145C459.677 272.714 458.726 265.196 458.331 265.196C458.262 265.196 456.614 266.727 454.688 268.607Z" fill="black"/>
<path d="M350.437 286.821C351.643 289.815 352.038 290.975 351.806 290.836C351.667 290.743 351.574 291.114 351.574 291.81C351.574 293.62 354.242 299.073 357.421 303.736C362.41 311.092 369.695 315.547 376.726 315.547C379.603 315.547 380.578 314.92 380.902 312.948C380.926 312.693 381.088 312.414 381.251 312.322C381.483 312.159 381.506 311.695 381.297 310.048C379.766 297.402 371.992 290.65 354.288 286.566C352.038 286.032 350.135 285.615 350.066 285.615C349.996 285.615 350.182 286.172 350.437 286.821Z" fill="black"/>
<path d="M435.314 286.427C421.184 289.629 413.503 294.409 409.884 302.275C408.515 305.221 407.331 311.022 407.842 312.229C407.958 312.461 408.074 312.902 408.12 313.203C408.422 314.944 409.489 315.547 412.274 315.547C419.606 315.547 426.776 310.999 432.089 302.948C434.641 299.119 437.24 293.782 437.379 292.158C437.449 291.23 437.426 290.928 437.217 291.044C436.962 291.207 437.147 290.696 438.447 287.494C439.096 285.916 439.166 285.615 438.888 285.638C438.772 285.638 437.171 286.009 435.314 286.427Z" fill="black"/>
<path d="M339.555 307.217C335.077 307.797 329.462 310.094 324.079 313.575C321.573 315.176 316.793 318.633 316.77 318.819C316.77 318.912 317.419 319.19 318.231 319.492C319.763 320.048 320.366 320.42 319.74 320.42C319.508 320.42 319.299 320.698 319.206 321.116C318.881 322.624 320.25 323.552 324.45 324.689C337.722 328.286 347.235 326.847 353.918 320.188C355.658 318.471 356.261 317.148 355.797 316.15C355.588 315.663 355.658 315.431 356.47 314.364C356.957 313.691 357.375 313.088 357.375 313.018C357.375 312.948 356.795 312.461 356.099 311.951C350.785 308.076 345.217 306.475 339.555 307.217Z" fill="black"/>
<path d="M443.528 307.287C439.932 307.983 436.173 309.63 433.18 311.835L431.625 312.995L432.553 314.248C433.412 315.385 433.481 315.547 433.226 316.104C432.739 317.171 433.319 318.447 435.082 320.188C441.765 326.847 451.278 328.286 464.55 324.689C468.727 323.552 470.119 322.624 469.794 321.139C469.725 320.768 469.469 320.42 469.26 320.373C469.052 320.327 469.678 319.956 470.676 319.561L472.509 318.865L469.585 316.73C462.532 311.556 456.824 308.679 451.487 307.565C448.865 307.032 445.524 306.916 443.528 307.287Z" fill="black"/>
<path d="M392.737 312.553C391.623 312.878 389.952 314.479 389.511 315.662C389.21 316.451 389.14 317.054 389.256 318.261C389.349 319.119 389.395 320.21 389.395 320.651C389.349 322.855 390.834 325.129 392.76 325.756C395.962 326.823 399.373 324.549 399.535 321.231C399.558 320.581 399.721 319.584 399.86 318.98C400.092 318.122 400.092 317.588 399.86 316.637C399.141 313.411 395.985 311.602 392.737 312.553Z" fill="black"/>
<path d="M367.932 317.077C361.528 318.145 354.312 322.344 346.237 329.63L344.984 330.79L346.701 331.324C347.653 331.626 348.256 331.904 348.047 331.951C347.514 332.09 347.258 333.064 347.583 333.76C347.954 334.573 349.323 335.176 351.945 335.709C365.125 338.378 374.406 336.568 380.949 330.071C382.55 328.47 383.502 327.055 383.594 326.103C383.71 325.129 383.594 324.572 383.316 324.734C383.038 324.92 383.038 324.897 384.221 323.041C384.639 322.368 384.987 321.741 384.987 321.602C384.987 321.254 383.85 320.535 381.576 319.398C376.773 316.985 372.619 316.265 367.932 317.077Z" fill="black"/>
<path d="M414.199 317.078C413.225 317.241 411.67 317.658 410.719 318.006C408.955 318.633 405.475 320.35 404.524 321.092L403.967 321.51L404.918 323.041C405.429 323.9 405.753 324.596 405.637 324.596C405.22 324.596 405.382 326.452 405.893 327.404C406.148 327.914 407.122 329.097 408.027 330.025C414.501 336.569 423.852 338.402 437.054 335.71C439.676 335.177 441.045 334.573 441.417 333.761C441.741 333.065 441.486 332.091 440.953 331.975C440.744 331.905 441.37 331.626 442.368 331.302L444.178 330.745L442.02 328.865C433.62 321.603 427.588 318.192 421.091 317.055C418.631 316.637 416.589 316.637 414.199 317.078Z" fill="black"/>
<path d="M469 203C469 244.421 435.421 278 394 278C352.579 278 319 244.421 319 203C319 161.579 352.579 128 394 128C435.421 128 469 161.579 469 203Z" fill="black"/>
<path d="M405.57 170.846V235.396H391.922V183.8H391.544L376.762 193.066V180.963L392.742 170.846H405.57Z" fill="#FFD90A"/>
<defs>
<linearGradient id="paint0_linear_884_5" x1="393.847" y1="742.771" x2="393.847" y2="20.5339" gradientUnits="userSpaceOnUse">
<stop stop-color="#A89324"/>
<stop offset="0.738443" stop-color="#E8C610"/>
<stop offset="1" stop-color="#FFD90A"/>
</linearGradient>
</defs>
</svg>
